<svg xmlns="http://www.w3.org/2000/svg" xmlns:xlink="http://www.w3.org/1999/xlink" width="1461" zoomAndPan="magnify" viewBox="0 0 1095.75 187.499995" height="250" preserveAspectRatio="xMidYMid meet" version="1.0"><defs><g/><clipPath id="4e5feb9829"><path d="M 20.03125 12.566406 L 287 12.566406 L 287 171.144531 L 20.03125 171.144531 Z M 20.03125 12.566406 " clip-rule="nonzero"/></clipPath></defs><g fill="#388e3c" fill-opacity="1"><g transform="translate(314.904571, 135.235665)"><g><path d="M 59 -57.4375 C 59 -57.4375 58.316406 -57.835938 56.953125 -58.640625 C 55.585938 -59.441406 53.785156 -60.34375 51.546875 -61.34375 C 49.304688 -62.34375 46.863281 -63.242188 44.21875 -64.046875 C 41.570312 -64.847656 38.96875 -65.25 36.40625 -65.25 C 34.40625 -65.25 32.765625 -64.925781 31.484375 -64.28125 C 30.203125 -63.644531 29.5625 -62.566406 29.5625 -61.046875 C 29.5625 -59.597656 30.203125 -58.429688 31.484375 -57.546875 C 32.765625 -56.671875 34.585938 -55.875 36.953125 -55.15625 C 39.316406 -54.4375 42.140625 -53.554688 45.421875 -52.515625 C 50.703125 -50.910156 55.265625 -49.066406 59.109375 -46.984375 C 62.960938 -44.898438 65.925781 -42.234375 68 -38.984375 C 70.082031 -35.742188 71.125 -31.441406 71.125 -26.078125 C 71.125 -20.953125 70.203125 -16.644531 68.359375 -13.15625 C 66.523438 -9.675781 64.046875 -6.894531 60.921875 -4.8125 C 57.796875 -2.726562 54.3125 -1.222656 50.46875 -0.296875 C 46.625 0.617188 42.695312 1.078125 38.6875 1.078125 C 34.601562 1.078125 30.335938 0.660156 25.890625 -0.171875 C 21.441406 -1.015625 17.132812 -2.175781 12.96875 -3.65625 C 8.8125 -5.144531 5.007812 -6.890625 1.5625 -8.890625 L 11.65625 -29.4375 C 11.65625 -29.4375 12.457031 -28.953125 14.0625 -27.984375 C 15.664062 -27.023438 17.785156 -25.945312 20.421875 -24.75 C 23.066406 -23.550781 26.007812 -22.46875 29.25 -21.5 C 32.5 -20.539062 35.765625 -20.0625 39.046875 -20.0625 C 41.609375 -20.0625 43.390625 -20.398438 44.390625 -21.078125 C 45.398438 -21.765625 45.90625 -22.671875 45.90625 -23.796875 C 45.90625 -25.472656 45.019531 -26.769531 43.25 -27.6875 C 41.488281 -28.613281 39.1875 -29.492188 36.34375 -30.328125 C 33.5 -31.171875 30.359375 -32.15625 26.921875 -33.28125 C 21.953125 -34.96875 17.863281 -36.867188 14.65625 -38.984375 C 11.457031 -41.109375 9.09375 -43.632812 7.5625 -46.5625 C 6.039062 -49.488281 5.28125 -53.03125 5.28125 -57.1875 C 5.28125 -63.519531 6.757812 -68.804688 9.71875 -73.046875 C 12.6875 -77.296875 16.59375 -80.519531 21.4375 -82.71875 C 26.289062 -84.925781 31.519531 -86.03125 37.125 -86.03125 C 41.289062 -86.03125 45.316406 -85.53125 49.203125 -84.53125 C 53.085938 -83.53125 56.734375 -82.304688 60.140625 -80.859375 C 63.546875 -79.421875 66.53125 -78.0625 69.09375 -76.78125 Z M 59 -57.4375 "/></g></g></g><g fill="#388e3c" fill-opacity="1"><g transform="translate(389.036091, 135.235665)"><g><path d="M 2.28125 -19.109375 C 2.28125 -23.347656 3.441406 -27.085938 5.765625 -30.328125 C 8.085938 -33.578125 11.3125 -36.125 15.4375 -37.96875 C 19.5625 -39.8125 24.269531 -40.734375 29.5625 -40.734375 C 32.039062 -40.734375 34.378906 -40.53125 36.578125 -40.125 C 38.785156 -39.726562 40.691406 -39.128906 42.296875 -38.328125 L 42.296875 -40.25 C 42.296875 -43.21875 41.429688 -45.421875 39.703125 -46.859375 C 37.984375 -48.304688 35.203125 -49.03125 31.359375 -49.03125 C 27.835938 -49.03125 24.535156 -48.445312 21.453125 -47.28125 C 18.367188 -46.125 15.144531 -44.421875 11.78125 -42.171875 L 5.171875 -56.359375 C 9.410156 -59.078125 13.875 -61.097656 18.5625 -62.421875 C 23.25 -63.742188 28.273438 -64.40625 33.640625 -64.40625 C 43.648438 -64.40625 51.398438 -62.140625 56.890625 -57.609375 C 62.378906 -53.085938 65.125 -46.378906 65.125 -37.484375 L 65.125 -25.234375 C 65.125 -23.066406 65.441406 -21.5625 66.078125 -20.71875 C 66.722656 -19.882812 67.847656 -19.382812 69.453125 -19.21875 L 69.453125 0 C 67.609375 0.394531 65.863281 0.691406 64.21875 0.890625 C 62.582031 1.097656 61.125 1.203125 59.84375 1.203125 C 55.75 1.203125 52.640625 0.460938 50.515625 -1.015625 C 48.398438 -2.503906 47.019531 -4.6875 46.375 -7.5625 L 45.90625 -9.859375 C 43.09375 -6.253906 39.84375 -3.507812 36.15625 -1.625 C 32.476562 0.257812 28.554688 1.203125 24.390625 1.203125 C 20.222656 1.203125 16.457031 0.320312 13.09375 -1.4375 C 9.726562 -3.195312 7.082031 -5.617188 5.15625 -8.703125 C 3.238281 -11.796875 2.28125 -15.265625 2.28125 -19.109375 Z M 39.296875 -17.546875 C 40.171875 -18.179688 40.890625 -18.878906 41.453125 -19.640625 C 42.015625 -20.398438 42.296875 -21.179688 42.296875 -21.984375 L 42.296875 -26.671875 C 41.015625 -27.148438 39.550781 -27.550781 37.90625 -27.875 C 36.269531 -28.195312 34.8125 -28.359375 33.53125 -28.359375 C 30.800781 -28.359375 28.492188 -27.675781 26.609375 -26.3125 C 24.734375 -24.945312 23.796875 -23.222656 23.796875 -21.140625 C 23.796875 -20.023438 24.113281 -19.003906 24.75 -18.078125 C 25.394531 -17.160156 26.273438 -16.441406 27.390625 -15.921875 C 28.515625 -15.398438 29.796875 -15.140625 31.234375 -15.140625 C 32.597656 -15.140625 34.019531 -15.359375 35.5 -15.796875 C 36.988281 -16.242188 38.253906 -16.828125 39.296875 -17.546875 Z M 39.296875 -17.546875 "/></g></g></g><g fill="#388e3c" fill-opacity="1"><g transform="translate(461.004951, 135.235665)"><g><path d="M 69.328125 0 L 46.5 0 L 46.5 -35.5625 C 46.5 -38.6875 45.796875 -40.945312 44.390625 -42.34375 C 42.992188 -43.75 41.253906 -44.453125 39.171875 -44.453125 C 38.210938 -44.453125 37.03125 -44.09375 35.625 -43.375 C 34.226562 -42.65625 32.882812 -41.613281 31.59375 -40.25 C 30.3125 -38.882812 29.3125 -37.285156 28.59375 -35.453125 L 28.59375 0 L 5.765625 0 L 5.765625 -87.71875 L 28.59375 -87.71875 L 28.59375 -53.828125 C 30.84375 -57.273438 33.785156 -59.898438 37.421875 -61.703125 C 41.066406 -63.503906 45.09375 -64.40625 49.5 -64.40625 C 53.988281 -64.40625 57.550781 -63.660156 60.1875 -62.171875 C 62.832031 -60.691406 64.796875 -58.789062 66.078125 -56.46875 C 67.367188 -54.144531 68.234375 -51.660156 68.671875 -49.015625 C 69.109375 -46.378906 69.328125 -43.898438 69.328125 -41.578125 Z M 69.328125 0 "/></g></g></g><g fill="#388e3c" fill-opacity="1"><g transform="translate(535.617066, 135.235665)"><g><path d="M 2.28125 -19.109375 C 2.28125 -23.347656 3.441406 -27.085938 5.765625 -30.328125 C 8.085938 -33.578125 11.3125 -36.125 15.4375 -37.96875 C 19.5625 -39.8125 24.269531 -40.734375 29.5625 -40.734375 C 32.039062 -40.734375 34.378906 -40.53125 36.578125 -40.125 C 38.785156 -39.726562 40.691406 -39.128906 42.296875 -38.328125 L 42.296875 -40.25 C 42.296875 -43.21875 41.429688 -45.421875 39.703125 -46.859375 C 37.984375 -48.304688 35.203125 -49.03125 31.359375 -49.03125 C 27.835938 -49.03125 24.535156 -48.445312 21.453125 -47.28125 C 18.367188 -46.125 15.144531 -44.421875 11.78125 -42.171875 L 5.171875 -56.359375 C 9.410156 -59.078125 13.875 -61.097656 18.5625 -62.421875 C 23.25 -63.742188 28.273438 -64.40625 33.640625 -64.40625 C 43.648438 -64.40625 51.398438 -62.140625 56.890625 -57.609375 C 62.378906 -53.085938 65.125 -46.378906 65.125 -37.484375 L 65.125 -25.234375 C 65.125 -23.066406 65.441406 -21.5625 66.078125 -20.71875 C 66.722656 -19.882812 67.847656 -19.382812 69.453125 -19.21875 L 69.453125 0 C 67.609375 0.394531 65.863281 0.691406 64.21875 0.890625 C 62.582031 1.097656 61.125 1.203125 59.84375 1.203125 C 55.75 1.203125 52.640625 0.460938 50.515625 -1.015625 C 48.398438 -2.503906 47.019531 -4.6875 46.375 -7.5625 L 45.90625 -9.859375 C 43.09375 -6.253906 39.84375 -3.507812 36.15625 -1.625 C 32.476562 0.257812 28.554688 1.203125 24.390625 1.203125 C 20.222656 1.203125 16.457031 0.320312 13.09375 -1.4375 C 9.726562 -3.195312 7.082031 -5.617188 5.15625 -8.703125 C 3.238281 -11.796875 2.28125 -15.265625 2.28125 -19.109375 Z M 39.296875 -17.546875 C 40.171875 -18.179688 40.890625 -18.878906 41.453125 -19.640625 C 42.015625 -20.398438 42.296875 -21.179688 42.296875 -21.984375 L 42.296875 -26.671875 C 41.015625 -27.148438 39.550781 -27.550781 37.90625 -27.875 C 36.269531 -28.195312 34.8125 -28.359375 33.53125 -28.359375 C 30.800781 -28.359375 28.492188 -27.675781 26.609375 -26.3125 C 24.734375 -24.945312 23.796875 -23.222656 23.796875 -21.140625 C 23.796875 -20.023438 24.113281 -19.003906 24.75 -18.078125 C 25.394531 -17.160156 26.273438 -16.441406 27.390625 -15.921875 C 28.515625 -15.398438 29.796875 -15.140625 31.234375 -15.140625 C 32.597656 -15.140625 34.019531 -15.359375 35.5 -15.796875 C 36.988281 -16.242188 38.253906 -16.828125 39.296875 -17.546875 Z M 39.296875 -17.546875 "/></g></g></g><g fill="#388e3c" fill-opacity="1"><g transform="translate(607.585938, 135.235665)"><g><path d="M 4.328125 25.109375 C 1.046875 25.109375 -2.132812 24.546875 -5.21875 23.421875 C -8.3125 22.304688 -11.097656 20.707031 -13.578125 18.625 L -4.203125 3.125 C -3.566406 3.84375 -2.726562 4.421875 -1.6875 4.859375 C -0.644531 5.304688 0.394531 5.53125 1.4375 5.53125 C 2.476562 5.53125 3.335938 5.328125 4.015625 4.921875 C 4.703125 4.523438 5.242188 3.925781 5.640625 3.125 C 6.046875 2.320312 6.25 1.398438 6.25 0.359375 L 6.25 -63.203125 L 29.078125 -63.203125 L 29.078125 -1.4375 C 29.078125 3.769531 28.015625 8.375 25.890625 12.375 C 23.765625 16.382812 20.859375 19.507812 17.171875 21.75 C 13.492188 23.988281 9.210938 25.109375 4.328125 25.109375 Z M 6.25 -68.484375 L 6.25 -87.71875 L 29.078125 -87.71875 L 29.078125 -68.484375 Z M 6.25 -68.484375 "/></g></g></g><g fill="#388e3c" fill-opacity="1"><g transform="translate(642.428952, 135.235665)"><g><path d="M 2.28125 -19.109375 C 2.28125 -23.347656 3.441406 -27.085938 5.765625 -30.328125 C 8.085938 -33.578125 11.3125 -36.125 15.4375 -37.96875 C 19.5625 -39.8125 24.269531 -40.734375 29.5625 -40.734375 C 32.039062 -40.734375 34.378906 -40.53125 36.578125 -40.125 C 38.785156 -39.726562 40.691406 -39.128906 42.296875 -38.328125 L 42.296875 -40.25 C 42.296875 -43.21875 41.429688 -45.421875 39.703125 -46.859375 C 37.984375 -48.304688 35.203125 -49.03125 31.359375 -49.03125 C 27.835938 -49.03125 24.535156 -48.445312 21.453125 -47.28125 C 18.367188 -46.125 15.144531 -44.421875 11.78125 -42.171875 L 5.171875 -56.359375 C 9.410156 -59.078125 13.875 -61.097656 18.5625 -62.421875 C 23.25 -63.742188 28.273438 -64.40625 33.640625 -64.40625 C 43.648438 -64.40625 51.398438 -62.140625 56.890625 -57.609375 C 62.378906 -53.085938 65.125 -46.378906 65.125 -37.484375 L 65.125 -25.234375 C 65.125 -23.066406 65.441406 -21.5625 66.078125 -20.71875 C 66.722656 -19.882812 67.847656 -19.382812 69.453125 -19.21875 L 69.453125 0 C 67.609375 0.394531 65.863281 0.691406 64.21875 0.890625 C 62.582031 1.097656 61.125 1.203125 59.84375 1.203125 C 55.75 1.203125 52.640625 0.460938 50.515625 -1.015625 C 48.398438 -2.503906 47.019531 -4.6875 46.375 -7.5625 L 45.90625 -9.859375 C 43.09375 -6.253906 39.84375 -3.507812 36.15625 -1.625 C 32.476562 0.257812 28.554688 1.203125 24.390625 1.203125 C 20.222656 1.203125 16.457031 0.320312 13.09375 -1.4375 C 9.726562 -3.195312 7.082031 -5.617188 5.15625 -8.703125 C 3.238281 -11.796875 2.28125 -15.265625 2.28125 -19.109375 Z M 39.296875 -17.546875 C 40.171875 -18.179688 40.890625 -18.878906 41.453125 -19.640625 C 42.015625 -20.398438 42.296875 -21.179688 42.296875 -21.984375 L 42.296875 -26.671875 C 41.015625 -27.148438 39.550781 -27.550781 37.90625 -27.875 C 36.269531 -28.195312 34.8125 -28.359375 33.53125 -28.359375 C 30.800781 -28.359375 28.492188 -27.675781 26.609375 -26.3125 C 24.734375 -24.945312 23.796875 -23.222656 23.796875 -21.140625 C 23.796875 -20.023438 24.113281 -19.003906 24.75 -18.078125 C 25.394531 -17.160156 26.273438 -16.441406 27.390625 -15.921875 C 28.515625 -15.398438 29.796875 -15.140625 31.234375 -15.140625 C 32.597656 -15.140625 34.019531 -15.359375 35.5 -15.796875 C 36.988281 -16.242188 38.253906 -16.828125 39.296875 -17.546875 Z M 39.296875 -17.546875 "/></g></g></g><g fill="#388e3c" fill-opacity="1"><g transform="translate(714.397801, 135.235665)"><g/></g></g><g fill="#388e3c" fill-opacity="1"><g transform="translate(741.431181, 135.235665)"><g><path d="M 24.625 -85.3125 L 39.890625 -50.46875 L 55.515625 -85.3125 L 80.984375 -85.3125 L 51.546875 -28.234375 L 51.546875 0 L 28.234375 0 L 28.234375 -28.484375 L -0.71875 -85.3125 Z M 24.625 -85.3125 "/></g></g></g><g fill="#388e3c" fill-opacity="1"><g transform="translate(821.449989, 135.235665)"><g><path d="M 36.890625 1.203125 C 31.285156 1.203125 26.316406 0.320312 21.984375 -1.4375 C 17.660156 -3.195312 14.035156 -5.617188 11.109375 -8.703125 C 8.191406 -11.796875 5.988281 -15.300781 4.5 -19.21875 C 3.019531 -23.144531 2.28125 -27.269531 2.28125 -31.59375 C 2.28125 -35.925781 3.019531 -40.070312 4.5 -44.03125 C 5.988281 -48 8.191406 -51.503906 11.109375 -54.546875 C 14.035156 -57.585938 17.660156 -59.988281 21.984375 -61.75 C 26.316406 -63.519531 31.285156 -64.40625 36.890625 -64.40625 C 42.578125 -64.40625 47.5625 -63.519531 51.84375 -61.75 C 56.132812 -59.988281 59.738281 -57.585938 62.65625 -54.546875 C 65.582031 -51.503906 67.785156 -48 69.265625 -44.03125 C 70.753906 -40.070312 71.5 -35.925781 71.5 -31.59375 C 71.5 -27.269531 70.753906 -23.144531 69.265625 -19.21875 C 67.785156 -15.300781 65.582031 -11.796875 62.65625 -8.703125 C 59.738281 -5.617188 56.132812 -3.195312 51.84375 -1.4375 C 47.5625 0.320312 42.578125 1.203125 36.890625 1.203125 Z M 25.71875 -31.59375 C 25.71875 -28.789062 26.195312 -26.367188 27.15625 -24.328125 C 28.113281 -22.285156 29.429688 -20.722656 31.109375 -19.640625 C 32.796875 -18.566406 34.722656 -18.03125 36.890625 -18.03125 C 39.046875 -18.03125 40.960938 -18.566406 42.640625 -19.640625 C 44.328125 -20.722656 45.648438 -22.285156 46.609375 -24.328125 C 47.578125 -26.367188 48.0625 -28.789062 48.0625 -31.59375 C 48.0625 -34.40625 47.578125 -36.832031 46.609375 -38.875 C 45.648438 -40.914062 44.328125 -42.472656 42.640625 -43.546875 C 40.960938 -44.628906 39.046875 -45.171875 36.890625 -45.171875 C 34.722656 -45.171875 32.796875 -44.628906 31.109375 -43.546875 C 29.429688 -42.472656 28.113281 -40.914062 27.15625 -38.875 C 26.195312 -36.832031 25.71875 -34.40625 25.71875 -31.59375 Z M 25.71875 -31.59375 "/></g></g></g><g fill="#388e3c" fill-opacity="1"><g transform="translate(895.221055, 135.235665)"><g><path d="M 30.046875 0 C 25.953125 0 22.203125 -0.800781 18.796875 -2.40625 C 15.398438 -4.007812 12.5 -6.25 10.09375 -9.125 C 7.6875 -12.007812 5.820312 -15.375 4.5 -19.21875 C 3.175781 -23.070312 2.515625 -27.238281 2.515625 -31.71875 C 2.515625 -36.445312 3.234375 -40.789062 4.671875 -44.75 C 6.117188 -48.71875 8.144531 -52.179688 10.75 -55.140625 C 13.351562 -58.109375 16.457031 -60.394531 20.0625 -62 C 23.664062 -63.601562 27.632812 -64.40625 31.96875 -64.40625 C 36.445312 -64.40625 40.425781 -63.503906 43.90625 -61.703125 C 47.394531 -59.898438 50.140625 -57.273438 52.140625 -53.828125 L 52.140625 -63.203125 L 71.96875 -63.203125 L 71.96875 -5.765625 C 71.96875 0.796875 70.363281 6.519531 67.15625 11.40625 C 63.957031 16.300781 59.472656 20.085938 53.703125 22.765625 C 47.941406 25.453125 41.21875 26.796875 33.53125 26.796875 C 26.875 26.796875 21.039062 25.753906 16.03125 23.671875 C 11.03125 21.585938 6.609375 18.582031 2.765625 14.65625 L 14.78125 2.15625 C 17.101562 4.320312 19.882812 6.144531 23.125 7.625 C 26.375 9.113281 29.84375 9.859375 33.53125 9.859375 C 36.332031 9.859375 38.910156 9.335938 41.265625 8.296875 C 43.628906 7.253906 45.53125 5.585938 46.96875 3.296875 C 48.414062 1.015625 49.140625 -2.003906 49.140625 -5.765625 L 49.140625 -9.859375 C 47.378906 -6.566406 44.753906 -4.097656 41.265625 -2.453125 C 37.785156 -0.816406 34.046875 0 30.046875 0 Z M 38.203125 -18.03125 C 39.328125 -18.03125 40.390625 -18.164062 41.390625 -18.4375 C 42.390625 -18.71875 43.332031 -19.117188 44.21875 -19.640625 C 45.101562 -20.160156 45.960938 -20.84375 46.796875 -21.6875 C 47.640625 -22.53125 48.421875 -23.472656 49.140625 -24.515625 L 49.140625 -35.8125 C 48.421875 -37.726562 47.421875 -39.382812 46.140625 -40.78125 C 44.859375 -42.1875 43.457031 -43.269531 41.9375 -44.03125 C 40.414062 -44.789062 38.851562 -45.171875 37.25 -45.171875 C 35.644531 -45.171875 34.140625 -44.8125 32.734375 -44.09375 C 31.335938 -43.375 30.117188 -42.351562 29.078125 -41.03125 C 28.035156 -39.707031 27.234375 -38.203125 26.671875 -36.515625 C 26.109375 -34.835938 25.828125 -33.039062 25.828125 -31.125 C 25.828125 -29.195312 26.128906 -27.429688 26.734375 -25.828125 C 27.335938 -24.234375 28.195312 -22.851562 29.3125 -21.6875 C 30.4375 -20.53125 31.757812 -19.628906 33.28125 -18.984375 C 34.800781 -18.347656 36.441406 -18.03125 38.203125 -18.03125 Z M 38.203125 -18.03125 "/></g></g></g><g fill="#388e3c" fill-opacity="1"><g transform="translate(972.957041, 135.235665)"><g><path d="M 2.28125 -19.109375 C 2.28125 -23.347656 3.441406 -27.085938 5.765625 -30.328125 C 8.085938 -33.578125 11.3125 -36.125 15.4375 -37.96875 C 19.5625 -39.8125 24.269531 -40.734375 29.5625 -40.734375 C 32.039062 -40.734375 34.378906 -40.53125 36.578125 -40.125 C 38.785156 -39.726562 40.691406 -39.128906 42.296875 -38.328125 L 42.296875 -40.25 C 42.296875 -43.21875 41.429688 -45.421875 39.703125 -46.859375 C 37.984375 -48.304688 35.203125 -49.03125 31.359375 -49.03125 C 27.835938 -49.03125 24.535156 -48.445312 21.453125 -47.28125 C 18.367188 -46.125 15.144531 -44.421875 11.78125 -42.171875 L 5.171875 -56.359375 C 9.410156 -59.078125 13.875 -61.097656 18.5625 -62.421875 C 23.25 -63.742188 28.273438 -64.40625 33.640625 -64.40625 C 43.648438 -64.40625 51.398438 -62.140625 56.890625 -57.609375 C 62.378906 -53.085938 65.125 -46.378906 65.125 -37.484375 L 65.125 -25.234375 C 65.125 -23.066406 65.441406 -21.5625 66.078125 -20.71875 C 66.722656 -19.882812 67.847656 -19.382812 69.453125 -19.21875 L 69.453125 0 C 67.609375 0.394531 65.863281 0.691406 64.21875 0.890625 C 62.582031 1.097656 61.125 1.203125 59.84375 1.203125 C 55.75 1.203125 52.640625 0.460938 50.515625 -1.015625 C 48.398438 -2.503906 47.019531 -4.6875 46.375 -7.5625 L 45.90625 -9.859375 C 43.09375 -6.253906 39.84375 -3.507812 36.15625 -1.625 C 32.476562 0.257812 28.554688 1.203125 24.390625 1.203125 C 20.222656 1.203125 16.457031 0.320312 13.09375 -1.4375 C 9.726562 -3.195312 7.082031 -5.617188 5.15625 -8.703125 C 3.238281 -11.796875 2.28125 -15.265625 2.28125 -19.109375 Z M 39.296875 -17.546875 C 40.171875 -18.179688 40.890625 -18.878906 41.453125 -19.640625 C 42.015625 -20.398438 42.296875 -21.179688 42.296875 -21.984375 L 42.296875 -26.671875 C 41.015625 -27.148438 39.550781 -27.550781 37.90625 -27.875 C 36.269531 -28.195312 34.8125 -28.359375 33.53125 -28.359375 C 30.800781 -28.359375 28.492188 -27.675781 26.609375 -26.3125 C 24.734375 -24.945312 23.796875 -23.222656 23.796875 -21.140625 C 23.796875 -20.023438 24.113281 -19.003906 24.75 -18.078125 C 25.394531 -17.160156 26.273438 -16.441406 27.390625 -15.921875 C 28.515625 -15.398438 29.796875 -15.140625 31.234375 -15.140625 C 32.597656 -15.140625 34.019531 -15.359375 35.5 -15.796875 C 36.988281 -16.242188 38.253906 -16.828125 39.296875 -17.546875 Z M 39.296875 -17.546875 "/></g></g></g><g clip-path="url(#4e5feb9829)"><path fill="#388e3c" d="M 230.8125 149.910156 C 208.820312 162.605469 183.515625 163.929688 168.253906 163.257812 C 182.628906 155.882812 205.300781 141.253906 219.164062 117.238281 C 222.863281 110.824219 225.660156 104.199219 227.773438 97.632812 C 248.707031 91.789062 268.871094 93.050781 277.65625 94.058594 C 272.914062 104.992188 258.257812 134.066406 230.8125 149.910156 Z M 76.632812 149.910156 C 49.246094 134.097656 34.550781 105 29.796875 94.054688 C 38.585938 93.046875 58.742188 91.792969 79.671875 97.632812 C 81.785156 104.199219 84.578125 110.824219 88.28125 117.238281 C 102.144531 141.253906 124.816406 155.882812 139.191406 163.257812 C 123.929688 163.929688 98.625 162.605469 76.632812 149.910156 Z M 82.175781 41.683594 C 93.121094 46.441406 122.214844 61.132812 138.023438 88.519531 C 144.578125 99.875 148.078125 112.101562 149.855469 123.390625 C 147.570312 138.613281 148.277344 151.96875 149.089844 159.601562 C 137.171875 154.21875 109.933594 139.660156 94.808594 113.46875 C 79 86.085938 80.824219 53.542969 82.175781 41.683594 Z M 153.722656 22.507812 C 158.988281 29.609375 170.160156 46.441406 175.566406 67.488281 C 170.929688 72.605469 166.59375 78.335938 162.890625 84.75 C 158.859375 91.734375 155.890625 98.96875 153.722656 106.117188 C 151.554688 98.96875 148.585938 91.734375 144.550781 84.75 C 140.847656 78.332031 136.507812 72.597656 131.871094 67.480469 C 137.273438 46.433594 148.457031 29.609375 153.722656 22.507812 Z M 212.636719 113.46875 C 197.511719 139.660156 170.273438 154.21875 158.351562 159.601562 C 159.164062 151.96875 159.875 138.613281 157.585938 123.386719 C 159.371094 112.101562 162.863281 99.871094 169.421875 88.519531 C 185.230469 61.132812 214.324219 46.441406 225.269531 41.683594 C 226.621094 53.542969 228.445312 86.085938 212.636719 113.46875 Z M 286.21875 89.113281 C 285.667969 88.160156 284.730469 87.496094 283.648438 87.292969 C 282.542969 87.082031 257.90625 82.601562 230.136719 89.226562 C 236.753906 61.640625 232.292969 37.046875 232.035156 35.679688 C 231.835938 34.601562 231.171875 33.660156 230.214844 33.113281 C 229.265625 32.5625 228.125 32.453125 227.085938 32.820312 C 225.773438 33.277344 202.242188 41.71875 181.664062 61.242188 C 173.519531 33.875 157.316406 14.789062 156.578125 13.929688 C 155.863281 13.09375 154.820312 12.617188 153.722656 12.617188 C 152.625 12.617188 151.578125 13.09375 150.863281 13.929688 C 150.136719 14.773438 133.929688 33.859375 125.78125 61.238281 C 105.199219 41.71875 81.667969 33.277344 80.359375 32.820312 C 79.324219 32.453125 78.179688 32.566406 77.226562 33.113281 C 76.277344 33.660156 75.613281 34.601562 75.40625 35.679688 C 75.148438 37.046875 70.6875 61.640625 77.304688 89.226562 C 49.535156 82.601562 24.90625 87.082031 23.792969 87.292969 C 22.710938 87.496094 21.777344 88.160156 21.230469 89.113281 C 20.679688 90.0625 20.570312 91.207031 20.9375 92.242188 C 21.550781 93.996094 36.386719 135.378906 72.863281 156.4375 C 93.519531 168.363281 116.34375 171.019531 132.59375 171.019531 C 143.429688 171.019531 151.335938 169.839844 153.722656 169.4375 C 156.109375 169.839844 164.011719 171.019531 174.847656 171.019531 C 191.097656 171.019531 213.925781 168.363281 234.582031 156.4375 C 271.058594 135.378906 285.898438 93.996094 286.511719 92.242188 C 286.875 91.207031 286.769531 90.0625 286.21875 89.113281 " fill-opacity="1" fill-rule="nonzero"/></g></svg>