<svg width="41" height="41" fill="none" xmlns="http://www.w3.org/2000/svg"><path d="M4.175 34c-.692 0-1.248-.223-1.669-.668-.42-.445-.631-1.004-.631-1.675s.21-1.215.631-1.632c.421-.417.977-.625 1.669-.625h33.55c.66 0 1.207.211 1.644.634.438.422.656.97.656 1.64 0 .672-.218 1.227-.656 1.667-.437.44-.985.659-1.644.659H4.175zm0-11.45c-.692 0-1.248-.223-1.669-.668-.42-.445-.631-.987-.631-1.625 0-.671.21-1.215.631-1.632.421-.417.977-.625 1.669-.625h33.55c.66 0 1.207.211 1.644.634.438.422.656.97.656 1.64 0 .639-.218 1.177-.656 1.617-.437.44-.985.659-1.644.659H4.175zm0-11.45c-.692 0-1.248-.214-1.669-.643-.42-.429-.631-.995-.631-1.7 0-.638.21-1.174.631-1.607.421-.433.977-.65 1.669-.65h33.55c.66 0 1.207.22 1.644.659.438.439.656.978.656 1.616 0 .704-.218 1.268-.656 1.69-.437.424-.985.635-1.644.635H4.175z" fill="#000"/></svg>